<svg width="64" height="64" viewBox="0 0 64 64" fill="none" xmlns="http://www.w3.org/2000/svg">
<path d="M48 29.3333C48 26.776 46.1867 24.6373 43.784 24.1227C44.744 22.52 45.3333 20.6667 45.3333 18.6667C45.3333 12.784 40.5493 8 34.6667 8C30.6213 8 27.144 10.2853 25.3333 13.6107C23.5227 10.2853 20.0453 8 16 8C10.1173 8 5.33333 12.784 5.33333 18.6667C5.33333 21.072 6.16533 23.272 7.51199 25.056C6.8389 25.5482 6.29099 26.1918 5.91253 26.9348C5.53407 27.6779 5.33566 28.4995 5.33333 29.3333V50.6667C5.33333 53.608 7.72533 56 10.6667 56H42.6667C45.608 56 48 53.608 48 50.6667V43.632L58.6667 48.9653V30.2987L48 35.632V29.3333ZM34.6667 13.3333C37.608 13.3333 40 15.7253 40 18.6667C40 21.608 37.608 24 34.6667 24C31.7253 24 29.3333 21.608 29.3333 18.6667C29.3333 15.7253 31.7253 13.3333 34.6667 13.3333ZM16 13.3333C18.9413 13.3333 21.3333 15.7253 21.3333 18.6667C21.3333 21.608 18.9413 24 16 24C13.0587 24 10.6667 21.608 10.6667 18.6667C10.6667 15.7253 13.0587 13.3333 16 13.3333ZM10.6667 50.6667V29.3333H42.6667L42.672 50.6667H10.6667Z" fill="white"/>
</svg>
